<svg width="91" height="210" viewBox="0 0 91 210" fill="none" xmlns="http://www.w3.org/2000/svg">
<path d="M42.1 210H41.1V211H42.1V210ZM42.1 18L42.8071 17.2929L41.1 15.5858V18H42.1ZM63.1 39V40H65.5142L63.8071 38.2929L63.1 39ZM0.1 39H-0.9V40H0.1V39ZM0.1 -1.52588e-05V-1.00002H-0.9V-1.52588e-05H0.1ZM90.7 -1.52588e-05H91.7V-1.00002H90.7V-1.52588e-05ZM90.7 210V211H91.7V210H90.7ZM43.1 210V18H41.1V210H43.1ZM41.3929 18.7071L62.3929 39.7071L63.8071 38.2929L42.8071 17.2929L41.3929 18.7071ZM63.1 38H0.1V40H63.1V38ZM1.1 39V-1.52588e-05H-0.9V39H1.1ZM0.1 0.999985H90.7V-1.00002H0.1V0.999985ZM89.7 -1.52588e-05V210H91.7V-1.52588e-05H89.7ZM90.7 209H42.1V211H90.7V209Z" fill="black" fill-opacity="0.2"/>
</svg>
