<svg width="169" height="214" viewBox="0 0 169 214" fill="none" xmlns="http://www.w3.org/2000/svg">
<path d="M9.9 214H8.9V215H9.9V214ZM9.9 182.5L9.21338 181.773L8.9 182.069V182.5H9.9ZM90.9 106L90.2285 105.259L90.2209 105.266L90.2134 105.273L90.9 106ZM105 90.4L105.838 90.9463L105.838 90.9463L105 90.4ZM111 77.8L110.046 77.4989L110.039 77.522L110.033 77.5455L111 77.8ZM104.1 48.1L103.465 48.8727L103.48 48.885L103.496 48.8967L104.1 48.1ZM54.6 46.3L54.1916 45.3871L54.1825 45.3913L54.6 46.3ZM35.7 62.2L35.1585 63.0407L35.9556 63.5541L36.5107 62.7855L35.7 62.2ZM0.3 39.4L-0.53205 38.8453L-1.09559 39.6906L-0.241477 40.2407L0.3 39.4ZM33.9 10.9L33.4628 10.0006L33.4628 10.0006L33.9 10.9ZM124.5 8.19999L124.091 9.11249L124.1 9.11671L124.11 9.12074L124.5 8.19999ZM151.8 29.5L150.979 30.0711L150.983 30.077L150.987 30.0829L151.8 29.5ZM159 82.9L158.033 82.6441L158.031 82.6542L158.028 82.6644L159 82.9ZM148.8 103.9L147.982 103.325L147.977 103.333L147.971 103.34L148.8 103.9ZM126.6 128.8L125.916 128.071L125.914 128.072L126.6 128.8ZM59.4 192.1L58.5148 192.565L59.1272 193.731L60.0857 192.828L59.4 192.1ZM50.1 174.4V173.4H48.4449L49.2148 174.865L50.1 174.4ZM168.6 174.4H169.6V173.4H168.6V174.4ZM168.6 214V215H169.6V214H168.6ZM10.9 214V182.5H8.9V214H10.9ZM10.5866 183.227L91.5866 106.727L90.2134 105.273L9.21338 181.773L10.5866 183.227ZM91.5715 106.741C98.0032 100.912 102.772 95.6467 105.838 90.9463L104.162 89.8537C101.228 94.3532 96.5968 99.4877 90.2285 105.259L91.5715 106.741ZM105.838 90.9463C108.875 86.2894 110.931 81.9902 111.967 78.0545L110.033 77.5455C109.069 81.2098 107.125 85.3106 104.162 89.8537L105.838 90.9463ZM111.954 78.1011C113.177 74.2266 113.8 70.6236 113.8 67.3H111.8C111.8 70.3764 111.223 73.7734 110.046 77.4989L111.954 78.1011ZM113.8 67.3C113.8 58.6418 110.794 51.9231 104.704 47.3033L103.496 48.8967C109.006 53.0769 111.8 59.1582 111.8 67.3H113.8ZM104.735 47.3273C98.8837 42.5211 90.3168 40.2 79.2 40.2V42.2C90.0832 42.2 98.1163 44.4789 103.465 48.8727L104.735 47.3273ZM79.2 40.2C70.2674 40.2 61.9274 41.9265 54.1916 45.3872L55.0084 47.2128C62.4726 43.8735 70.5326 42.2 79.2 42.2V40.2ZM54.1825 45.3913C46.6118 48.8697 40.1809 54.2877 34.8893 61.6145L36.5107 62.7855C41.6191 55.7123 47.7882 50.5302 55.0175 47.2087L54.1825 45.3913ZM36.2415 61.3593L0.841477 38.5593L-0.241477 40.2407L35.1585 63.0407L36.2415 61.3593ZM1.13205 39.9547C9.02283 28.1185 20.079 18.7304 34.3372 11.7994L33.4628 10.0006C18.921 17.0696 7.57717 26.6815 -0.53205 38.8453L1.13205 39.9547ZM34.3372 11.7994C48.5792 4.87617 65.0252 1.4 83.7 1.4V-0.600004C64.7748 -0.600004 48.0208 2.92382 33.4628 10.0006L34.3372 11.7994ZM83.7 1.4C99.1903 1.4 112.645 3.98172 124.091 9.11249L124.909 7.28748C113.155 2.01826 99.4097 -0.600004 83.7 -0.600004V1.4ZM124.11 9.12074C135.762 14.058 144.702 21.0472 150.979 30.0711L152.621 28.9289C146.098 19.5528 136.838 12.342 124.89 7.27923L124.11 9.12074ZM150.987 30.0829C157.45 39.0913 160.7 49.8807 160.7 62.5H162.7C162.7 49.5193 159.35 38.3087 152.613 28.9171L150.987 30.0829ZM160.7 62.5C160.7 69.2107 159.812 75.9247 158.033 82.6441L159.967 83.1559C161.788 76.2753 162.7 69.3893 162.7 62.5H160.7ZM158.028 82.6644C156.466 89.1096 153.132 95.9955 147.982 103.325L149.618 104.475C154.868 97.0045 158.334 89.8904 159.972 83.1356L158.028 82.6644ZM147.971 103.34C143.028 110.656 135.686 118.899 125.916 128.071L127.284 129.529C137.114 120.301 144.572 111.944 149.629 104.46L147.971 103.34ZM125.914 128.072L58.7143 191.372L60.0857 192.828L127.286 129.528L125.914 128.072ZM60.2852 191.635L50.9852 173.935L49.2148 174.865L58.5148 192.565L60.2852 191.635ZM50.1 175.4H168.6V173.4H50.1V175.4ZM167.6 174.4V214H169.6V174.4H167.6ZM168.6 213H9.9V215H168.6V213Z" fill="black" fill-opacity="0.2"/>
</svg>
