<svg width="168" height="214" viewBox="0 0 168 214" fill="none" xmlns="http://www.w3.org/2000/svg">
<path d="M37.3 207.9L37.0323 208.864L37.0448 208.867L37.3 207.9ZM0.7 191.1L-0.191533 190.647L-0.579623 191.411L0.115695 191.912L0.7 191.1ZM19.6 153.9L20.187 153.09L19.2389 152.403L18.7085 153.447L19.6 153.9ZM47.5 167.7L47.1946 168.652L47.5 167.7ZM108.4 165.6L108.966 166.425L108.4 165.6ZM57.4 120H56.4V121H57.4V120ZM57.4 87.9L56.6502 87.2384L56.4 87.5219V87.9H57.4ZM115.9 21.6L116.855 21.3036L116.328 19.604L115.15 20.9384L115.9 21.6ZM121.3 39V40H122.657L122.255 38.7036L121.3 39ZM11.2 39H10.2V40H11.2V39ZM11.2 -1.52588e-05V-1.00002H10.2V-1.52588e-05H11.2ZM158.2 -1.52588e-05H159.2V-1.00002H158.2V-1.52588e-05ZM158.2 31.5L158.952 32.1597L159.2 31.8766V31.5H158.2ZM100 97.8L99.5027 98.6676L100.212 99.0742L100.752 98.4597L100 97.8ZM75.4 83.7V82.7H71.6444L74.9027 84.5676L75.4 83.7ZM148 101.1L147.34 101.851L148 101.1ZM158.5 179.1L159.355 179.619L159.359 179.612L158.5 179.1ZM130 204L129.553 203.106L130 204ZM80.8 212.6C66.2878 212.6 51.8736 210.712 37.5552 206.933L37.0448 208.867C51.5264 212.688 66.1122 214.6 80.8 214.6V212.6ZM37.5676 206.936C23.2579 202.962 11.1706 197.407 1.2843 190.288L0.115695 191.912C10.2294 199.193 22.5421 204.838 37.0324 208.864L37.5676 206.936ZM1.59153 191.553L20.4915 154.353L18.7085 153.447L-0.191533 190.647L1.59153 191.553ZM19.013 154.71C27.1088 160.579 36.5064 165.224 47.1946 168.652L47.8054 166.748C37.2936 163.376 28.0912 158.821 20.187 153.09L19.013 154.71ZM47.1946 168.652C57.8902 172.083 68.6932 173.8 79.6 173.8V171.8C68.9068 171.8 58.3098 170.117 47.8054 166.748L47.1946 168.652ZM79.6 173.8C91.9174 173.8 101.741 171.379 108.966 166.425L107.834 164.775C101.059 169.421 91.6826 171.8 79.6 171.8V173.8ZM108.966 166.425C116.234 161.441 119.9 154.534 119.9 145.8H117.9C117.9 153.866 114.566 160.159 107.834 164.775L108.966 166.425ZM119.9 145.8C119.9 137.497 116.661 130.893 110.196 126.097L109.004 127.703C114.939 132.107 117.9 138.103 117.9 145.8H119.9ZM110.196 126.097C103.733 121.302 93.4657 119 79.6 119V121C93.3343 121 103.067 123.298 109.004 127.703L110.196 126.097ZM79.6 119H57.4V121H79.6V119ZM58.4 120V87.9H56.4V120H58.4ZM58.1498 88.5616L116.65 22.2616L115.15 20.9384L56.6502 87.2384L58.1498 88.5616ZM114.945 21.8964L120.345 39.2964L122.255 38.7036L116.855 21.3036L114.945 21.8964ZM121.3 38H11.2V40H121.3V38ZM12.2 39V-1.52588e-05H10.2V39H12.2ZM11.2 0.999985H158.2V-1.00002H11.2V0.999985ZM157.2 -1.52588e-05V31.5H159.2V-1.52588e-05H157.2ZM157.448 30.8403L99.2485 97.1403L100.752 98.4597L158.952 32.1597L157.448 30.8403ZM100.497 96.9324L75.8973 82.8324L74.9027 84.5676L99.5027 98.6676L100.497 96.9324ZM75.4 84.7H89.5V82.7H75.4V84.7ZM89.5 84.7C115.168 84.7 134.392 90.4723 147.34 101.851L148.66 100.349C135.209 88.5277 115.432 82.7 89.5 82.7V84.7ZM147.34 101.851C160.315 113.254 166.8 127.876 166.8 145.8H168.8C168.8 127.324 162.085 112.146 148.66 100.349L147.34 101.851ZM166.8 145.8C166.8 157.415 163.751 168.339 157.641 178.588L159.359 179.612C165.649 169.061 168.8 157.785 168.8 145.8H166.8ZM157.645 178.581C151.561 188.59 142.218 196.773 129.553 203.106L130.447 204.894C143.382 198.427 153.039 190.01 159.355 179.619L157.645 178.581ZM129.553 203.106C116.936 209.414 100.703 212.6 80.8 212.6V214.6C100.897 214.6 117.464 211.386 130.447 204.894L129.553 203.106Z" fill="black" fill-opacity="0.2"/>
</svg>
