<svg width="195" height="210" viewBox="0 0 195 210" fill="none" xmlns="http://www.w3.org/2000/svg">
<path d="M0.3 165.9H-0.7V166.9H0.3V165.9ZM0.3 133.2L-0.502595 132.603L-0.7 132.869V133.2H0.3ZM99.3 -1.52588e-05V-1.00002H98.7973L98.4974 -0.596539L99.3 -1.52588e-05ZM150.3 -1.52588e-05L151.109 0.588266L152.264 -1.00002H150.3V-1.52588e-05ZM53.4 133.2L53.1205 134.16L53.7952 134.357L54.2087 133.788L53.4 133.2ZM29.7 126.3V125.3L29.4205 127.26L29.7 126.3ZM195 126.3H196V125.3H195V126.3ZM195 165.9V166.9H196V165.9H195ZM113.4 210H112.4V211H113.4V210ZM113.4 165.9L112.401 165.862L112.4 165.881V165.9H113.4ZM114.9 126.3L115.899 126.338L115.9 126.319V126.3H114.9ZM114.9 87V86H113.9V87H114.9ZM160.8 87H161.8V86H160.8V87ZM160.8 210V211H161.8V210H160.8ZM1.3 165.9V133.2H-0.7V165.9H1.3ZM1.1026 133.797L100.103 0.59651L98.4974 -0.596539L-0.502595 132.603L1.1026 133.797ZM99.3 0.999985H150.3V-1.00002H99.3V0.999985ZM149.491 -0.588295L52.5913 132.612L54.2087 133.788L151.109 0.588266L149.491 -0.588295ZM53.6795 132.24L29.9795 125.34L29.4205 127.26L53.1205 134.16L53.6795 132.24ZM29.7 127.3H195V125.3H29.7V127.3ZM194 126.3V165.9H196V126.3H194ZM195 164.9H0.3V166.9H195V164.9ZM114.4 210V165.9H112.4V210H114.4ZM114.399 165.938L115.899 126.338L113.901 126.262L112.401 165.862L114.399 165.938ZM115.9 126.3V87H113.9V126.3H115.9ZM114.9 88H160.8V86H114.9V88ZM159.8 87V210H161.8V87H159.8ZM160.8 209H113.4V211H160.8V209Z" fill="black" fill-opacity="0.2"/>
</svg>
