<svg width="168" height="214" viewBox="0 0 168 214" fill="none" xmlns="http://www.w3.org/2000/svg">
<path d="M36.6 207.9L36.3289 208.863L36.3368 208.865L36.3448 208.867L36.6 207.9ZM2.38419e-07 191.1L-0.88862 190.641L-1.28789 191.415L-0.576683 191.917L2.38419e-07 191.1ZM19.2 153.9L19.787 153.09L18.845 152.407L18.3114 153.441L19.2 153.9ZM46.8 167.7L46.4893 168.651L46.4946 168.652L46.8 167.7ZM107.7 165.6L108.266 166.425L107.7 165.6ZM99 121.5L98.7002 122.454L98.7078 122.456L99 121.5ZM15.6 118.2L14.6041 118.109L14.5045 119.2H15.6V118.2ZM26.4 -1.52588e-05V-1.00002H25.4872L25.4042 -0.0910053L26.4 -1.52588e-05ZM154.5 -1.52588e-05H155.5V-1.00002H154.5V-1.52588e-05ZM154.5 39V40H155.5V39H154.5ZM43.8 39L43.139 38.2496L41.1521 40H43.8V39ZM69 16.8L69.9961 16.8886L70.218 14.3943L68.339 16.0496L69 16.8ZM61.5 101.1L60.839 101.85L62.321 103.156L62.4961 101.189L61.5 101.1ZM36.3 78.9V77.9H33.6521L35.639 79.6504L36.3 78.9ZM130.8 87.6L130.382 88.5084L130.39 88.5123L130.399 88.5162L130.8 87.6ZM158.7 110.7L159.561 110.191L158.7 110.7ZM158.1 178.5L158.959 179.012L158.963 179.005L158.1 178.5ZM129.3 204L129.747 204.894L129.753 204.892L129.3 204ZM80.1 212.6C65.5879 212.6 51.1736 210.712 36.8552 206.933L36.3448 208.867C50.8264 212.688 65.4122 214.6 80.1 214.6V212.6ZM36.8711 206.937C22.7611 202.963 10.6687 197.407 0.576683 190.283L-0.576683 191.917C9.73129 199.193 22.0389 204.837 36.3289 208.863L36.8711 206.937ZM0.888621 191.559L20.0886 154.359L18.3114 153.441L-0.88862 190.641L0.888621 191.559ZM18.613 154.71C26.7057 160.577 36.0009 165.222 46.4893 168.65L47.1107 166.749C36.7991 163.378 27.6943 158.823 19.787 153.09L18.613 154.71ZM46.4946 168.652C57.1902 172.083 67.9932 173.8 78.9 173.8V171.8C68.2068 171.8 57.6098 170.117 47.1054 166.748L46.4946 168.652ZM78.9 173.8C91.2174 173.8 101.041 171.379 108.266 166.425L107.134 164.775C100.359 169.421 90.9826 171.8 78.9 171.8V173.8ZM108.266 166.425C115.542 161.435 119.2 154.424 119.2 145.5H117.2C117.2 153.776 113.858 160.165 107.134 164.775L108.266 166.425ZM119.2 145.5C119.2 139.917 117.749 134.921 114.832 130.545L113.168 131.655C115.851 135.679 117.2 140.283 117.2 145.5H119.2ZM114.832 130.545C111.854 126.078 106.609 122.779 99.2922 120.544L98.7078 122.456C105.791 124.621 110.546 127.722 113.168 131.655L114.832 130.545ZM99.2998 120.546C92.1565 118.301 82.138 117.2 69.3 117.2V119.2C82.062 119.2 91.8435 120.299 98.7002 122.454L99.2998 120.546ZM69.3 117.2H15.6V119.2H69.3V117.2ZM16.5959 118.291L27.3959 0.0909767L25.4042 -0.0910053L14.6041 118.109L16.5959 118.291ZM26.4 0.999985H154.5V-1.00002H26.4V0.999985ZM153.5 -1.52588e-05V39H155.5V-1.52588e-05H153.5ZM154.5 38H43.8V40H154.5V38ZM44.461 39.7503L69.661 17.5503L68.339 16.0496L43.139 38.2496L44.461 39.7503ZM68.0039 16.7114L60.5039 101.011L62.4961 101.189L69.9961 16.8886L68.0039 16.7114ZM62.161 100.35L36.961 78.1496L35.639 79.6504L60.839 101.85L62.161 100.35ZM36.3 79.9H80.7V77.9H36.3V79.9ZM80.7 79.9C101.421 79.9 117.962 82.7912 130.382 88.5084L131.218 86.6916C118.438 80.8088 101.579 77.9 80.7 77.9V79.9ZM130.399 88.5162C143.051 94.0515 152.168 101.627 157.839 111.209L159.561 110.191C153.632 100.173 144.149 92.3485 131.201 86.6838L130.399 88.5162ZM157.839 111.209C163.54 120.842 166.4 131.763 166.4 144H168.4C168.4 131.437 165.46 120.158 159.561 110.191L157.839 111.209ZM166.4 144C166.4 156.224 163.346 167.55 157.237 177.995L158.963 179.005C165.254 168.25 168.4 156.576 168.4 144H166.4ZM157.241 177.988C151.156 188.195 141.713 196.576 128.847 203.108L129.753 204.892C142.887 198.224 152.644 189.605 158.959 179.012L157.241 177.988ZM128.853 203.106C116.236 209.414 100.003 212.6 80.1 212.6V214.6C100.197 214.6 116.764 211.386 129.747 204.894L128.853 203.106Z" fill="black" fill-opacity="0.2"/>
</svg>
