<svg width="71" height="16" viewBox="0 0 71 16" fill="none" xmlns="http://www.w3.org/2000/svg">
<path d="M5.2 15.232C4.38933 15.232 3.60533 15.1307 2.848 14.928C2.10133 14.736 1.47733 14.4427 0.976 14.048L1.968 12.256C2.33067 12.5547 2.78933 12.7893 3.344 12.96C3.90933 13.1413 4.464 13.232 5.008 13.232C5.89333 13.232 6.53333 13.0347 6.928 12.64C7.33333 12.2453 7.536 11.6587 7.536 10.88V9.584L7.696 7.424L7.664 5.248V3.392H10.032V10.56C10.032 12.16 9.616 13.3387 8.784 14.096C7.952 14.8533 6.75733 15.232 5.2 15.232ZM4.816 11.584C4.016 11.584 3.29067 11.4133 2.64 11.072C2 10.72 1.48267 10.2347 1.088 9.616C0.704 8.98667 0.512 8.256 0.512 7.424C0.512 6.58133 0.704 5.85067 1.088 5.232C1.48267 4.60267 2 4.11733 2.64 3.776C3.29067 3.43467 4.016 3.264 4.816 3.264C5.54133 3.264 6.18133 3.41333 6.736 3.712C7.29067 4 7.72267 4.45333 8.032 5.072C8.34133 5.68 8.496 6.464 8.496 7.424C8.496 8.37333 8.34133 9.15733 8.032 9.776C7.72267 10.384 7.29067 10.8373 6.736 11.136C6.18133 11.4347 5.54133 11.584 4.816 11.584ZM5.312 9.536C5.74933 9.536 6.13867 9.45067 6.48 9.28C6.82133 9.09867 7.088 8.848 7.28 8.528C7.472 8.208 7.568 7.84 7.568 7.424C7.568 6.99733 7.472 6.62933 7.28 6.32C7.088 6 6.82133 5.75467 6.48 5.584C6.13867 5.40267 5.74933 5.312 5.312 5.312C4.87467 5.312 4.48533 5.40267 4.144 5.584C3.80267 5.75467 3.53067 6 3.328 6.32C3.136 6.62933 3.04 6.99733 3.04 7.424C3.04 7.84 3.136 8.208 3.328 8.528C3.53067 8.848 3.80267 9.09867 4.144 9.28C4.48533 9.45067 4.87467 9.536 5.312 9.536ZM16.4511 12.128C15.5338 12.128 14.7178 11.936 14.0031 11.552C13.2991 11.168 12.7391 10.6453 12.3231 9.984C11.9178 9.312 11.7151 8.54933 11.7151 7.696C11.7151 6.832 11.9178 6.06933 12.3231 5.408C12.7391 4.736 13.2991 4.21333 14.0031 3.84C14.7178 3.456 15.5338 3.264 16.4511 3.264C17.3578 3.264 18.1685 3.456 18.8831 3.84C19.5978 4.21333 20.1578 4.73067 20.5631 5.392C20.9685 6.05333 21.1711 6.82133 21.1711 7.696C21.1711 8.54933 20.9685 9.312 20.5631 9.984C20.1578 10.6453 19.5978 11.168 18.8831 11.552C18.1685 11.936 17.3578 12.128 16.4511 12.128ZM16.4511 10.08C16.8671 10.08 17.2405 9.984 17.5711 9.792C17.9018 9.6 18.1631 9.328 18.3551 8.976C18.5471 8.61333 18.6431 8.18667 18.6431 7.696C18.6431 7.19467 18.5471 6.768 18.3551 6.416C18.1631 6.064 17.9018 5.792 17.5711 5.6C17.2405 5.408 16.8671 5.312 16.4511 5.312C16.0351 5.312 15.6618 5.408 15.3311 5.6C15.0005 5.792 14.7338 6.064 14.5311 6.416C14.3391 6.768 14.2431 7.19467 14.2431 7.696C14.2431 8.18667 14.3391 8.61333 14.5311 8.976C14.7338 9.328 15.0005 9.6 15.3311 9.792C15.6618 9.984 16.0351 10.08 16.4511 10.08ZM26.5355 12.128C25.7248 12.128 24.9942 11.9467 24.3435 11.584C23.6928 11.2107 23.1755 10.6933 22.7915 10.032C22.4182 9.37067 22.2315 8.592 22.2315 7.696C22.2315 6.78933 22.4182 6.00533 22.7915 5.344C23.1755 4.68267 23.6928 4.17067 24.3435 3.808C24.9942 3.44533 25.7248 3.264 26.5355 3.264C27.2608 3.264 27.8955 3.424 28.4395 3.744C28.9835 4.064 29.4048 4.54933 29.7035 5.2C30.0022 5.85067 30.1515 6.68267 30.1515 7.696C30.1515 8.69867 30.0075 9.53067 29.7195 10.192C29.4315 10.8427 29.0155 11.328 28.4715 11.648C27.9382 11.968 27.2928 12.128 26.5355 12.128ZM26.9675 10.08C27.3728 10.08 27.7408 9.984 28.0715 9.792C28.4022 9.6 28.6635 9.328 28.8555 8.976C29.0582 8.61333 29.1595 8.18667 29.1595 7.696C29.1595 7.19467 29.0582 6.768 28.8555 6.416C28.6635 6.064 28.4022 5.792 28.0715 5.6C27.7408 5.408 27.3728 5.312 26.9675 5.312C26.5515 5.312 26.1782 5.408 25.8475 5.6C25.5168 5.792 25.2502 6.064 25.0475 6.416C24.8555 6.768 24.7595 7.19467 24.7595 7.696C24.7595 8.18667 24.8555 8.61333 25.0475 8.976C25.2502 9.328 25.5168 9.6 25.8475 9.792C26.1782 9.984 26.5515 10.08 26.9675 10.08ZM29.2235 12V10.24L29.2715 7.68L29.1115 5.136V0.127999H31.6075V12H29.2235ZM37.6136 12.128C36.803 12.128 36.0723 11.9467 35.4216 11.584C34.771 11.2107 34.2536 10.6933 33.8696 10.032C33.4963 9.37067 33.3096 8.592 33.3096 7.696C33.3096 6.78933 33.4963 6.00533 33.8696 5.344C34.2536 4.68267 34.771 4.17067 35.4216 3.808C36.0723 3.44533 36.803 3.264 37.6136 3.264C38.339 3.264 38.9736 3.424 39.5176 3.744C40.0616 4.064 40.483 4.54933 40.7816 5.2C41.0803 5.85067 41.2296 6.68267 41.2296 7.696C41.2296 8.69867 41.0856 9.53067 40.7976 10.192C40.5096 10.8427 40.0936 11.328 39.5496 11.648C39.0163 11.968 38.371 12.128 37.6136 12.128ZM38.0456 10.08C38.451 10.08 38.819 9.984 39.1496 9.792C39.4803 9.6 39.7416 9.328 39.9336 8.976C40.1363 8.61333 40.2376 8.18667 40.2376 7.696C40.2376 7.19467 40.1363 6.768 39.9336 6.416C39.7416 6.064 39.4803 5.792 39.1496 5.6C38.819 5.408 38.451 5.312 38.0456 5.312C37.6296 5.312 37.2563 5.408 36.9256 5.6C36.595 5.792 36.3283 6.064 36.1256 6.416C35.9336 6.768 35.8376 7.19467 35.8376 7.696C35.8376 8.18667 35.9336 8.61333 36.1256 8.976C36.3283 9.328 36.595 9.6 36.9256 9.792C37.2563 9.984 37.6296 10.08 38.0456 10.08ZM40.3016 12V10.24L40.3496 7.68L40.1896 5.136V0.127999H42.6856V12H40.3016ZM49.2678 12.128C48.2864 12.128 47.4224 11.936 46.6758 11.552C45.9398 11.168 45.3691 10.6453 44.9638 9.984C44.5584 9.312 44.3558 8.54933 44.3558 7.696C44.3558 6.832 44.5531 6.06933 44.9478 5.408C45.3531 4.736 45.9024 4.21333 46.5958 3.84C47.2891 3.456 48.0731 3.264 48.9478 3.264C49.7904 3.264 50.5478 3.44533 51.2198 3.808C51.9024 4.16 52.4411 4.672 52.8358 5.344C53.2304 6.00533 53.4278 6.8 53.4278 7.728C53.4278 7.824 53.4224 7.936 53.4118 8.064C53.4011 8.18133 53.3904 8.29333 53.3798 8.4H46.3878V6.944H52.0677L51.1078 7.376C51.1078 6.928 51.0171 6.53867 50.8358 6.208C50.6544 5.87733 50.4038 5.62133 50.0838 5.44C49.7638 5.248 49.3904 5.152 48.9638 5.152C48.5371 5.152 48.1584 5.248 47.8278 5.44C47.5078 5.62133 47.2571 5.88267 47.0758 6.224C46.8944 6.55467 46.8038 6.94933 46.8038 7.408V7.792C46.8038 8.26133 46.9051 8.67733 47.1078 9.04C47.3211 9.392 47.6144 9.664 47.9878 9.856C48.3718 10.0373 48.8198 10.128 49.3318 10.128C49.7904 10.128 50.1904 10.0587 50.5318 9.92C50.8838 9.78133 51.2038 9.57333 51.4918 9.296L52.8198 10.736C52.4251 11.184 51.9291 11.5307 51.3318 11.776C50.7344 12.0107 50.0464 12.128 49.2678 12.128ZM57.9855 12.128C57.2495 12.128 56.5402 12.0427 55.8575 11.872C55.1855 11.6907 54.6522 11.4667 54.2575 11.2L55.0895 9.408C55.4842 9.65333 55.9482 9.856 56.4815 10.016C57.0255 10.1653 57.5588 10.24 58.0815 10.24C58.6575 10.24 59.0628 10.1707 59.2975 10.032C59.5428 9.89333 59.6655 9.70133 59.6655 9.456C59.6655 9.25333 59.5695 9.104 59.3775 9.008C59.1962 8.90133 58.9508 8.82133 58.6415 8.768C58.3322 8.71467 57.9908 8.66133 57.6175 8.608C57.2548 8.55467 56.8868 8.48533 56.5135 8.4C56.1402 8.304 55.7988 8.16533 55.4895 7.984C55.1802 7.80267 54.9295 7.55733 54.7375 7.248C54.5562 6.93867 54.4655 6.53867 54.4655 6.048C54.4655 5.504 54.6202 5.024 54.9295 4.608C55.2495 4.192 55.7082 3.86667 56.3055 3.632C56.9028 3.38667 57.6175 3.264 58.4495 3.264C59.0362 3.264 59.6335 3.328 60.2415 3.456C60.8495 3.584 61.3562 3.77067 61.7615 4.016L60.9295 5.792C60.5135 5.54667 60.0922 5.38133 59.6655 5.296C59.2495 5.2 58.8442 5.152 58.4495 5.152C57.8948 5.152 57.4895 5.22667 57.2335 5.376C56.9775 5.52533 56.8495 5.71733 56.8495 5.952C56.8495 6.16533 56.9402 6.32533 57.1215 6.432C57.3135 6.53867 57.5642 6.624 57.8735 6.688C58.1828 6.752 58.5188 6.81067 58.8815 6.864C59.2548 6.90667 59.6282 6.976 60.0015 7.072C60.3748 7.168 60.7108 7.30667 61.0095 7.488C61.3188 7.65867 61.5695 7.89867 61.7615 8.208C61.9535 8.50667 62.0495 8.90133 62.0495 9.392C62.0495 9.92533 61.8895 10.4 61.5695 10.816C61.2495 11.2213 60.7855 11.5413 60.1775 11.776C59.5802 12.0107 58.8495 12.128 57.9855 12.128ZM66.4855 12.128C65.7495 12.128 65.0402 12.0427 64.3575 11.872C63.6855 11.6907 63.1522 11.4667 62.7575 11.2L63.5895 9.408C63.9842 9.65333 64.4482 9.856 64.9815 10.016C65.5255 10.1653 66.0588 10.24 66.5815 10.24C67.1575 10.24 67.5628 10.1707 67.7975 10.032C68.0428 9.89333 68.1655 9.70133 68.1655 9.456C68.1655 9.25333 68.0695 9.104 67.8775 9.008C67.6962 8.90133 67.4508 8.82133 67.1415 8.768C66.8322 8.71467 66.4908 8.66133 66.1175 8.608C65.7548 8.55467 65.3868 8.48533 65.0135 8.4C64.6402 8.304 64.2988 8.16533 63.9895 7.984C63.6802 7.80267 63.4295 7.55733 63.2375 7.248C63.0562 6.93867 62.9655 6.53867 62.9655 6.048C62.9655 5.504 63.1202 5.024 63.4295 4.608C63.7495 4.192 64.2082 3.86667 64.8055 3.632C65.4028 3.38667 66.1175 3.264 66.9495 3.264C67.5362 3.264 68.1335 3.328 68.7415 3.456C69.3495 3.584 69.8562 3.77067 70.2615 4.016L69.4295 5.792C69.0135 5.54667 68.5922 5.38133 68.1655 5.296C67.7495 5.2 67.3442 5.152 66.9495 5.152C66.3948 5.152 65.9895 5.22667 65.7335 5.376C65.4775 5.52533 65.3495 5.71733 65.3495 5.952C65.3495 6.16533 65.4402 6.32533 65.6215 6.432C65.8135 6.53867 66.0642 6.624 66.3735 6.688C66.6828 6.752 67.0188 6.81067 67.3815 6.864C67.7548 6.90667 68.1282 6.976 68.5015 7.072C68.8748 7.168 69.2108 7.30667 69.5095 7.488C69.8188 7.65867 70.0695 7.89867 70.2615 8.208C70.4535 8.50667 70.5495 8.90133 70.5495 9.392C70.5495 9.92533 70.3895 10.4 70.0695 10.816C69.7495 11.2213 69.2855 11.5413 68.6775 11.776C68.0802 12.0107 67.3495 12.128 66.4855 12.128Z" fill="#404040"/>
</svg>
